<?xml version="1.0" encoding="UTF-8" standalone="no"?>
<!-- Created with Inkscape (http://www.inkscape.org/) -->
<svg
   xmlns:svg="http://www.w3.org/2000/svg"
   xmlns="http://www.w3.org/2000/svg"
   version="1.0"
   width="433.91336"
   height="244.84251"
   id="svg10428">
  <defs
     id="defs10430" />
  <g
     transform="translate(-164.9408,-437.3868)"
     id="layer1">
    <g
       transform="translate(3.548835,3.536412)"
       id="g10459">
      <path
         d="M 170.40204,556.27662 C 170.40204,491.20427 266.9159,442.74875 378.32383,442.74875 C 489.73179,442.74875 586.29527,491.20427 586.29527,556.27662 C 586.29527,621.36889 489.73179,669.70519 378.32383,669.70519 C 266.9159,669.70519 170.40204,621.36889 170.40204,556.27662"
         style="fill:white;fill-rule:nonzero;stroke:none"
         id="path5195" />
      <path
         d="M 378.32383,437.38685 C 496.13624,437.38685 591.75645,490.65815 591.75645,556.27662 C 591.75645,621.90505 496.13624,675.15644 378.32383,675.15644 C 260.56105,675.15644 164.94084,621.90505 164.94084,556.27662 C 164.94084,490.65815 260.56105,437.38685 378.32383,437.38685 z M 378.32383,448.11063 C 266.51868,448.11063 175.71425,496.66545 175.71425,556.27662 C 175.71425,615.91267 266.51868,664.35327 378.32383,664.35327 C 490.12894,664.35327 580.93339,615.91267 580.93339,556.27662 C 580.93339,496.66545 490.12894,448.11063 378.32383,448.11063 z M 340.84035,567.69044 L 298.83895,567.69044 C 299.33538,578.027 305.14408,582.81791 313.83233,582.81791 C 320.28642,582.81791 324.70501,579.18374 325.84688,575.52479 L 339.59911,575.52479 C 336.07419,588.03085 325.84688,593.81971 313.23658,593.81971 C 295.36361,593.81971 284.2427,581.52216 284.2427,563.95701 C 284.2427,546.94298 296.009,533.98509 313.23658,533.98509 C 332.59889,533.98509 341.93254,550.23457 340.84035,567.69044 z M 312.83939,544.69894 C 304.10151,544.69894 299.63327,550.51258 298.93823,557.94974 L 326.19442,557.94974 C 325.15183,550.01115 321.82549,544.69894 312.83939,544.69894 z M 522.69741,567.69044 L 480.69602,567.69044 C 481.14281,578.027 487.00121,582.81791 495.63974,582.81791 C 502.14353,582.81791 506.56212,579.18374 507.70399,575.52479 L 521.45622,575.52479 C 517.9313,588.03085 507.70399,593.81971 495.09364,593.81971 C 477.17107,593.81971 466.09979,581.52216 466.09979,563.95701 C 466.09979,546.94298 477.86614,533.98509 495.09364,533.98509 C 514.45598,533.98509 523.7896,550.23457 522.69741,567.69044 z M 494.6468,544.69894 C 485.9586,544.69894 481.49038,550.51258 480.74564,557.94974 L 508.05153,557.94974 C 507.00894,550.01115 503.68257,544.69894 494.6468,544.69894 z M 210.76508,592.28067 L 226.35424,592.28067 L 226.35424,558.46607 L 260.01491,558.46607 L 260.01491,592.28067 L 275.60408,592.28067 L 275.60408,513.74403 L 260.01491,513.74403 L 260.01491,545.90039 L 226.35424,545.90039 L 226.35424,513.74403 L 210.76508,513.74403 L 210.76508,592.28067 z M 349.42925,592.28067 L 364.12478,592.28067 L 364.12478,561.5789 C 364.12478,550.05084 368.19582,545.32947 376.63585,545.32947 C 383.88431,545.32947 387.16103,549.94164 387.16103,559.27034 L 387.16103,592.28067 L 401.80686,592.28067 L 401.80686,557.36886 C 401.80686,543.31873 397.63652,533.98509 381.00473,533.98509 C 374.45136,533.98509 367.60005,537.06321 363.67796,543.42794 L 363.33038,543.42794 L 363.33038,535.52415 L 349.42925,535.52415 L 349.42925,592.28067 z M 414.31793,592.28067 L 428.96378,592.28067 L 428.96378,561.54414 L 450.60992,592.28067 L 468.83037,592.28067 L 444.99977,560.43204 L 466.09979,535.52415 L 448.62404,535.52415 L 428.96378,559.9952 L 428.96378,513.74403 L 414.31793,513.74403 L 414.31793,592.28067 z M 531.28634,592.28067 L 545.93219,592.28067 L 545.93219,513.74403 L 531.28634,513.74403 L 531.28634,592.28067"
         style="fill:#ec1b23;fill-rule:evenodd;stroke:none"
         id="path5197" />
    </g>
  </g>
</svg>
